<svg width="115" height="15" viewBox="0 0 115 15" fill="none" xmlns="http://www.w3.org/2000/svg">
<path d="M6.81152 0.737305C8.44629 0.737305 9.71484 1.16797 10.6172 2.0293C11.5195 2.89062 12.0205 3.86914 12.1201 4.96484H10.415C10.2217 4.13281 9.83496 3.47363 9.25488 2.9873C8.68066 2.50098 7.87207 2.25781 6.8291 2.25781C5.55762 2.25781 4.5293 2.70605 3.74414 3.60254C2.96484 4.49316 2.5752 5.86133 2.5752 7.70703C2.5752 9.21875 2.92676 10.4463 3.62988 11.3896C4.33887 12.3271 5.39355 12.7959 6.79395 12.7959C8.08301 12.7959 9.06445 12.3008 9.73828 11.3105C10.0957 10.7891 10.3623 10.1035 10.5381 9.25391H12.2432C12.0908 10.6133 11.5869 11.7529 10.7314 12.6729C9.70605 13.7803 8.32324 14.334 6.58301 14.334C5.08301 14.334 3.82324 13.8799 2.80371 12.9717C1.46191 11.7705 0.791016 9.91602 0.791016 7.4082C0.791016 5.50391 1.29492 3.94238 2.30273 2.72363C3.39258 1.39941 4.89551 0.737305 6.81152 0.737305ZM19.9512 0.737305C22.2305 0.737305 23.918 1.46973 25.0137 2.93457C25.8691 4.07715 26.2969 5.53906 26.2969 7.32031C26.2969 9.24805 25.8076 10.8506 24.8291 12.1279C23.6807 13.6279 22.043 14.3779 19.916 14.3779C17.9297 14.3779 16.3682 13.7217 15.2314 12.4092C14.2178 11.1436 13.7109 9.54395 13.7109 7.61035C13.7109 5.86426 14.1445 4.37012 15.0117 3.12793C16.125 1.53418 17.7715 0.737305 19.9512 0.737305ZM20.127 12.8135C21.668 12.8135 22.7812 12.2627 23.4668 11.1611C24.1582 10.0537 24.5039 8.78223 24.5039 7.34668C24.5039 5.8291 24.1055 4.60742 23.3086 3.68164C22.5176 2.75586 21.4336 2.29297 20.0566 2.29297C18.7207 2.29297 17.6309 2.75293 16.7871 3.67285C15.9434 4.58691 15.5215 5.9375 15.5215 7.72461C15.5215 9.1543 15.8818 10.3613 16.6025 11.3457C17.3291 12.3242 18.5039 12.8135 20.127 12.8135ZM28.3887 1.08887H30.4541L36.9756 11.5479V1.08887H38.6367V14H36.6768L30.0586 3.5498V14H28.3887V1.08887ZM50.792 1.08887V2.62695H46.4414V14H44.666V2.62695H40.3154V1.08887H50.792ZM57.6914 8.70898L55.7314 3.00488L53.6484 8.70898H57.6914ZM54.8174 1.08887H56.7949L61.4795 14H59.5635L58.2539 10.1328H53.1475L51.75 14H49.957L54.8174 1.08887ZM68.5107 0.737305C70.1455 0.737305 71.4141 1.16797 72.3164 2.0293C73.2188 2.89062 73.7197 3.86914 73.8193 4.96484H72.1143C71.9209 4.13281 71.5342 3.47363 70.9541 2.9873C70.3799 2.50098 69.5713 2.25781 68.5283 2.25781C67.2568 2.25781 66.2285 2.70605 65.4434 3.60254C64.6641 4.49316 64.2744 5.86133 64.2744 7.70703C64.2744 9.21875 64.626 10.4463 65.3291 11.3896C66.0381 12.3271 67.0928 12.7959 68.4932 12.7959C69.7822 12.7959 70.7637 12.3008 71.4375 11.3105C71.7949 10.7891 72.0615 10.1035 72.2373 9.25391H73.9424C73.79 10.6133 73.2861 11.7529 72.4307 12.6729C71.4053 13.7803 70.0225 14.334 68.2822 14.334C66.7822 14.334 65.5225 13.8799 64.5029 12.9717C63.1611 11.7705 62.4902 9.91602 62.4902 7.4082C62.4902 5.50391 62.9941 3.94238 64.002 2.72363C65.0918 1.39941 66.5947 0.737305 68.5107 0.737305ZM85.4736 1.08887V2.62695H81.123V14H79.3477V2.62695H74.9971V1.08887H85.4736ZM93.6738 1.08887V9.06934C93.6738 10.0068 93.8496 10.7861 94.2012 11.4072C94.7227 12.3447 95.6016 12.8135 96.8379 12.8135C98.3203 12.8135 99.3281 12.3066 99.8613 11.293C100.148 10.7422 100.292 10.001 100.292 9.06934V1.08887H102.067V8.33984C102.067 9.92773 101.854 11.1494 101.426 12.0049C100.641 13.5635 99.1582 14.3428 96.9785 14.3428C94.7988 14.3428 93.3193 13.5635 92.54 12.0049C92.1123 11.1494 91.8984 9.92773 91.8984 8.33984V1.08887H93.6738ZM105.926 9.83398C105.967 10.5664 106.14 11.1611 106.444 11.6182C107.024 12.4736 108.047 12.9014 109.512 12.9014C110.168 12.9014 110.766 12.8076 111.305 12.6201C112.348 12.2568 112.869 11.6064 112.869 10.6689C112.869 9.96582 112.649 9.46484 112.21 9.16602C111.765 8.87305 111.067 8.61816 110.118 8.40137L108.369 8.00586C107.227 7.74805 106.418 7.46387 105.943 7.15332C105.123 6.61426 104.713 5.80859 104.713 4.73633C104.713 3.57617 105.114 2.62402 105.917 1.87988C106.72 1.13574 107.856 0.763672 109.327 0.763672C110.681 0.763672 111.829 1.0918 112.772 1.74805C113.722 2.39844 114.196 3.44141 114.196 4.87695H112.553C112.465 4.18555 112.277 3.65527 111.99 3.28613C111.457 2.6123 110.552 2.27539 109.274 2.27539C108.243 2.27539 107.502 2.49219 107.051 2.92578C106.6 3.35937 106.374 3.86328 106.374 4.4375C106.374 5.07031 106.638 5.5332 107.165 5.82617C107.511 6.01367 108.293 6.24805 109.512 6.5293L111.322 6.94238C112.195 7.1416 112.869 7.41406 113.344 7.75977C114.164 8.36328 114.574 9.23926 114.574 10.3877C114.574 11.8174 114.053 12.8398 113.01 13.4551C111.973 14.0703 110.766 14.3779 109.389 14.3779C107.783 14.3779 106.526 13.9678 105.618 13.1475C104.71 12.333 104.265 11.2285 104.282 9.83398H105.926Z" fill="white"/>
</svg>
