<svg width="667" height="102" viewBox="0 0 667 102" fill="none" xmlns="http://www.w3.org/2000/svg">
<path d="M53.3218 17.9443V29.2866H34.1572V82H20.6855V29.2866H1.43408V17.9443H53.3218ZM69.9224 17.9443L78.3965 54.6221L80.2217 64.8345L82.0903 54.8394L89.3042 17.9443H103.428L111.033 54.6221L112.988 64.8345L114.944 55.0132L123.505 17.9443H137.107L119.072 82H106.296L98.5605 44.54L96.3008 32.1548L94.041 44.54L86.3057 82H73.877L55.7119 17.9443H69.9224ZM192.602 29.2866H158.705V42.8887H189.82V54.0137H158.705V70.4839H194.166V82H145.625V17.9443H192.602V29.2866ZM204.378 17.9443H218.415L243.924 62.6616V17.9443H256.396V82H243.012L216.851 36.5005V82H204.378V17.9443ZM315.455 17.9443V29.2866H296.29V82H282.818V29.2866H263.567V17.9443H315.455ZM359.868 17.9443H375.034L353.61 57.9248V82H340.225V57.9248L318.062 17.9443H333.837L347.135 45.8438L359.868 17.9443ZM452.431 17.9443V29.2866H433.267V82H419.795V29.2866H400.543V17.9443H452.431ZM469.032 17.9443L477.506 54.6221L479.331 64.8345L481.2 54.8394L488.414 17.9443H502.537L510.142 54.6221L512.098 64.8345L514.053 55.0132L522.614 17.9443H536.216L518.182 82H505.405L497.67 44.54L495.41 32.1548L493.15 44.54L485.415 82H472.986L454.821 17.9443H469.032ZM572.677 72.4395C577.979 72.4395 582.179 70.4839 585.279 66.5728C588.408 62.6616 589.973 57.0991 589.973 49.8853C589.973 42.7004 588.408 37.1523 585.279 33.2412C582.179 29.3011 577.979 27.3311 572.677 27.3311C567.375 27.3311 563.145 29.2866 559.987 33.1978C556.829 37.1089 555.25 42.6714 555.25 49.8853C555.25 57.0991 556.829 62.6616 559.987 66.5728C563.145 70.4839 567.375 72.4395 572.677 72.4395ZM603.357 49.8853C603.357 61.3869 600.127 70.1942 593.667 76.3071C588.828 81.2902 581.832 83.7817 572.677 83.7817C563.522 83.7817 556.525 81.2902 551.687 76.3071C545.197 70.1942 541.953 61.3869 541.953 49.8853C541.953 38.1519 545.197 29.3446 551.687 23.4634C556.525 18.4803 563.522 15.9888 572.677 15.9888C581.832 15.9888 588.828 18.4803 593.667 23.4634C600.127 29.3446 603.357 38.1519 603.357 49.8853ZM623.304 62.2271C623.71 65.1532 624.507 67.3405 625.694 68.7891C627.867 71.4255 631.59 72.7437 636.863 72.7437C640.021 72.7437 642.585 72.396 644.555 71.7007C648.292 70.368 650.161 67.891 650.161 64.2695C650.161 62.1546 649.234 60.5177 647.379 59.3589C645.525 58.229 642.614 57.2295 638.645 56.3604L631.865 54.8394C625.202 53.3328 620.595 51.696 618.046 49.9287C613.729 46.9736 611.571 42.3527 611.571 36.0659C611.571 30.3296 613.657 25.5638 617.829 21.7686C622 17.9733 628.128 16.0757 636.211 16.0757C642.961 16.0757 648.712 17.8719 653.463 21.4644C658.244 25.0278 660.75 30.2137 660.981 37.022H648.118C647.886 33.1688 646.206 30.431 643.077 28.8086C640.991 27.7367 638.398 27.2007 635.298 27.2007C631.851 27.2007 629.098 27.896 627.042 29.2866C624.985 30.6772 623.956 32.6183 623.956 35.1099C623.956 37.3986 624.97 39.1079 626.998 40.2378C628.302 40.991 631.083 41.8747 635.342 42.8887L646.38 45.5396C651.218 46.6984 654.868 48.2484 657.331 50.1895C661.155 53.2025 663.067 57.5627 663.067 63.27C663.067 69.1222 660.822 73.9894 656.332 77.8716C651.87 81.7248 645.554 83.6514 637.384 83.6514C629.041 83.6514 622.479 81.7537 617.698 77.9585C612.918 74.1343 610.528 68.8905 610.528 62.2271H623.304Z" fill="white"/>
</svg>
