<svg width="1548" height="102" viewBox="0 0 1548 102" fill="none" xmlns="http://www.w3.org/2000/svg">
<path d="M53.3218 17.9443V29.2866H34.1572V82H20.6855V29.2866H1.43408V17.9443H53.3218ZM69.9224 17.9443L78.3965 54.6221L80.2217 64.8345L82.0903 54.8394L89.3042 17.9443H103.428L111.033 54.6221L112.988 64.8345L114.944 55.0132L123.505 17.9443H137.107L119.072 82H106.296L98.5605 44.54L96.3008 32.1548L94.041 44.54L86.3057 82H73.877L55.7119 17.9443H69.9224ZM192.602 29.2866H158.705V42.8887H189.82V54.0137H158.705V70.4839H194.166V82H145.625V17.9443H192.602V29.2866ZM204.378 17.9443H218.415L243.924 62.6616V17.9443H256.396V82H243.012L216.851 36.5005V82H204.378V17.9443ZM315.455 17.9443V29.2866H296.29V82H282.818V29.2866H263.567V17.9443H315.455ZM359.868 17.9443H375.034L353.61 57.9248V82H340.225V57.9248L318.062 17.9443H333.837L347.135 45.8438L359.868 17.9443ZM452.431 17.9443V29.2866H433.267V82H419.795V29.2866H400.543V17.9443H452.431ZM469.032 17.9443L477.506 54.6221L479.331 64.8345L481.2 54.8394L488.414 17.9443H502.537L510.142 54.6221L512.098 64.8345L514.053 55.0132L522.614 17.9443H536.216L518.182 82H505.405L497.67 44.54L495.41 32.1548L493.15 44.54L485.415 82H472.986L454.821 17.9443H469.032ZM572.677 72.4395C577.979 72.4395 582.179 70.4839 585.279 66.5728C588.408 62.6616 589.973 57.0991 589.973 49.8853C589.973 42.7004 588.408 37.1523 585.279 33.2412C582.179 29.3011 577.979 27.3311 572.677 27.3311C567.375 27.3311 563.145 29.2866 559.987 33.1978C556.829 37.1089 555.25 42.6714 555.25 49.8853C555.25 57.0991 556.829 62.6616 559.987 66.5728C563.145 70.4839 567.375 72.4395 572.677 72.4395ZM603.357 49.8853C603.357 61.3869 600.127 70.1942 593.667 76.3071C588.828 81.2902 581.832 83.7817 572.677 83.7817C563.522 83.7817 556.525 81.2902 551.687 76.3071C545.197 70.1942 541.953 61.3869 541.953 49.8853C541.953 38.1519 545.197 29.3446 551.687 23.4634C556.525 18.4803 563.522 15.9888 572.677 15.9888C581.832 15.9888 588.828 18.4803 593.667 23.4634C600.127 29.3446 603.357 38.1519 603.357 49.8853ZM623.304 62.2271C623.71 65.1532 624.507 67.3405 625.694 68.7891C627.867 71.4255 631.59 72.7437 636.863 72.7437C640.021 72.7437 642.585 72.396 644.555 71.7007C648.292 70.368 650.161 67.891 650.161 64.2695C650.161 62.1546 649.234 60.5177 647.379 59.3589C645.525 58.229 642.614 57.2295 638.645 56.3604L631.865 54.8394C625.202 53.3328 620.595 51.696 618.046 49.9287C613.729 46.9736 611.571 42.3527 611.571 36.0659C611.571 30.3296 613.657 25.5638 617.829 21.7686C622 17.9733 628.128 16.0757 636.211 16.0757C642.961 16.0757 648.712 17.8719 653.463 21.4644C658.244 25.0278 660.75 30.2137 660.981 37.022H648.118C647.886 33.1688 646.206 30.431 643.077 28.8086C640.991 27.7367 638.398 27.2007 635.298 27.2007C631.851 27.2007 629.098 27.896 627.042 29.2866C624.985 30.6772 623.956 32.6183 623.956 35.1099C623.956 37.3986 624.97 39.1079 626.998 40.2378C628.302 40.991 631.083 41.8747 635.342 42.8887L646.38 45.5396C651.218 46.6984 654.868 48.2484 657.331 50.1895C661.155 53.2025 663.067 57.5627 663.067 63.27C663.067 69.1222 660.822 73.9894 656.332 77.8716C651.87 81.7248 645.554 83.6514 637.384 83.6514C629.041 83.6514 622.479 81.7537 617.698 77.9585C612.918 74.1343 610.528 68.8905 610.528 62.2271H623.304Z" fill="white"/>
<path d="M739.546 55.8389L729.855 27.6353L719.556 55.8389H739.546ZM725.335 18.1616H735.113L758.276 82H748.802L742.327 62.8789H717.079L710.169 82H701.304L725.335 18.1616ZM795.823 47.4082C799.879 47.4082 803.08 46.597 805.427 44.9746C807.802 43.3522 808.99 40.4261 808.99 36.1963C808.99 31.6478 807.339 28.5479 804.036 26.8965C802.269 26.0273 799.908 25.5928 796.953 25.5928H775.833V47.4082H795.823ZM767.185 18.1616H796.735C801.603 18.1616 805.615 18.8714 808.773 20.291C814.77 23.0143 817.769 28.0409 817.769 35.3706C817.769 39.1948 816.972 42.3237 815.378 44.7573C813.814 47.1909 811.612 49.1465 808.773 50.624C811.264 51.638 813.133 52.9707 814.379 54.6221C815.654 56.2734 816.363 58.9533 816.508 62.6616L816.812 71.2227C816.899 73.6562 817.102 75.467 817.421 76.6548C817.942 78.6828 818.869 79.9865 820.202 80.5659V82H809.599C809.309 81.4495 809.077 80.7397 808.903 79.8706C808.729 79.0015 808.585 77.3211 808.469 74.8296L807.947 64.1826C807.744 60.0107 806.194 57.215 803.297 55.7954C801.646 55.0132 799.053 54.6221 795.519 54.6221H775.833V82H767.185V18.1616ZM875.349 18.1616V25.7666H853.838V82H845.06V25.7666H823.548V18.1616H875.349ZM901.945 42.9756C904.697 41.0345 906.595 39.4556 907.638 38.2388C909.347 36.2687 910.202 34.0814 910.202 31.6768C910.202 29.7936 909.579 28.1712 908.333 26.8096C907.087 25.4479 905.407 24.7671 903.292 24.7671C900.076 24.7671 897.845 25.839 896.6 27.9829C895.962 29.0838 895.644 30.2861 895.644 31.5898C895.644 33.3571 896.122 35.0519 897.078 36.6743C898.063 38.2967 899.685 40.3971 901.945 42.9756ZM899.946 76.6113C903.162 76.6113 905.928 75.8726 908.246 74.395C910.564 72.9175 912.346 71.2661 913.591 69.4409L899.164 51.8408C895.079 54.5641 892.413 56.6501 891.167 58.0986C889.255 60.2715 888.299 62.9224 888.299 66.0513C888.299 69.4409 889.531 72.0483 891.993 73.8735C894.485 75.6987 897.136 76.6113 899.946 76.6113ZM894.818 46.4956C892.124 43.3957 890.313 40.7882 889.386 38.6733C888.488 36.5584 888.039 34.516 888.039 32.5459C888.039 28.432 889.429 25.0278 892.21 22.3335C894.992 19.6102 898.715 18.2485 903.379 18.2485C907.812 18.2485 911.274 19.5088 913.765 22.0293C916.257 24.5498 917.502 27.5628 917.502 31.0684C917.502 35.1533 916.213 38.7313 913.635 41.8022C912.128 43.5985 909.608 45.6699 906.073 48.0166L917.72 61.9229C918.502 59.6051 919.038 57.8813 919.328 56.7515C919.646 55.5926 919.965 53.9847 920.284 51.9277H927.715C927.222 56.0127 926.237 59.9383 924.76 63.7046C923.282 67.4419 922.543 68.9484 922.543 68.2241L933.886 82H923.804L917.807 74.6992C915.431 77.2777 913.258 79.1608 911.288 80.3486C907.84 82.4346 903.871 83.4775 899.381 83.4775C892.746 83.4775 887.923 81.6958 884.91 78.1323C881.897 74.5399 880.39 70.4984 880.39 66.0078C880.39 61.1696 881.853 57.1281 884.779 53.8833C886.576 51.9132 889.922 49.4507 894.818 46.4956ZM967.174 74.6123C970.1 74.6123 972.505 74.3081 974.388 73.6997C977.748 72.5698 980.501 70.397 982.645 67.1812C984.354 64.6027 985.585 61.3 986.338 57.2729C986.773 54.8683 986.99 52.6375 986.99 50.5806C986.99 42.6714 985.411 36.5295 982.253 32.1548C979.125 27.7801 974.069 25.5928 967.087 25.5928H951.747V74.6123H967.174ZM943.055 18.1616H968.912C977.69 18.1616 984.499 21.276 989.337 27.5049C993.654 33.1253 995.812 40.3247 995.812 49.103C995.812 55.8823 994.537 62.0098 991.988 67.4854C987.497 77.1618 979.776 82 968.825 82H943.055V18.1616ZM1007.81 18.1616H1054.35V25.9839H1016.24V45.3657H1051.48V52.7534H1016.24V74.395H1055V82H1007.81V18.1616ZM1071.99 61.4014C1072.19 65.0228 1073.05 67.9634 1074.56 70.2231C1077.42 74.453 1082.48 76.5679 1089.72 76.5679C1092.97 76.5679 1095.92 76.1043 1098.59 75.1772C1103.74 73.381 1106.32 70.1652 1106.32 65.5298C1106.32 62.0532 1105.24 59.5762 1103.06 58.0986C1100.86 56.6501 1097.41 55.3898 1092.72 54.3179L1084.07 52.3623C1078.42 51.0876 1074.43 49.6825 1072.08 48.147C1068.02 45.4816 1066 41.498 1066 36.1963C1066 30.46 1067.98 25.7521 1071.95 22.0728C1075.92 18.3934 1081.54 16.5537 1088.81 16.5537C1095.5 16.5537 1101.18 18.1761 1105.85 21.4209C1110.54 24.6367 1112.89 29.7936 1112.89 36.8916H1104.76C1104.32 33.473 1103.4 30.8511 1101.98 29.0259C1099.34 25.6942 1094.87 24.0283 1088.55 24.0283C1083.45 24.0283 1079.79 25.1003 1077.55 27.2441C1075.32 29.388 1074.21 31.8796 1074.21 34.7188C1074.21 37.8477 1075.51 40.1364 1078.12 41.585C1079.83 42.512 1083.7 43.6709 1089.72 45.0615L1098.67 47.104C1102.99 48.089 1106.32 49.4362 1108.67 51.1455C1112.73 54.1296 1114.75 58.4608 1114.75 64.1392C1114.75 71.2082 1112.18 76.2637 1107.02 79.3057C1101.89 82.3477 1095.92 83.8687 1089.11 83.8687C1081.18 83.8687 1074.96 81.8407 1070.47 77.7847C1065.98 73.7576 1063.78 68.2965 1063.87 61.4014H1071.99ZM1127.66 18.1616H1136.4V82H1127.66V18.1616ZM1178.07 16.5103C1184.07 16.5103 1189.25 17.6691 1193.63 19.9868C1199.97 23.3185 1203.86 29.1562 1205.27 37.5H1196.71C1195.67 32.8356 1193.51 29.446 1190.24 27.3311C1186.97 25.1872 1182.84 24.1152 1177.85 24.1152C1171.94 24.1152 1166.96 26.3315 1162.9 30.7642C1158.88 35.1968 1156.86 41.8022 1156.86 50.5806C1156.86 58.1711 1158.53 64.3564 1161.86 69.1367C1165.19 73.888 1170.63 76.2637 1178.16 76.2637C1183.92 76.2637 1188.69 74.5978 1192.46 71.2661C1196.25 67.9054 1198.19 62.4878 1198.28 55.0132H1178.29V47.8428H1206.32V82H1200.76L1198.67 73.7866C1195.74 77.0024 1193.15 79.2332 1190.89 80.479C1187.1 82.6229 1182.27 83.6948 1176.42 83.6948C1168.86 83.6948 1162.35 81.2467 1156.91 76.3506C1150.97 70.2087 1148 61.778 1148 51.0586C1148 40.3682 1150.9 31.8651 1156.69 25.5493C1162.19 19.5233 1169.32 16.5103 1178.07 16.5103ZM1219.75 18.1616H1229.96L1262.2 69.8755V18.1616H1270.42V82H1260.73L1228 30.3296V82H1219.75V18.1616ZM1353.72 18.1616V25.7666H1332.21V82H1323.43V25.7666H1301.92V18.1616H1353.72ZM1362.5 18.1616H1409.04V25.9839H1370.93V45.3657H1406.18V52.7534H1370.93V74.395H1409.7V82H1362.5V18.1616ZM1453.81 55.8389L1444.11 27.6353L1433.82 55.8389H1453.81ZM1439.6 18.1616H1449.37L1472.54 82H1463.06L1456.59 62.8789H1431.34L1424.43 82H1415.56L1439.6 18.1616ZM1480.18 18.1616H1492.57L1510.91 72.1353L1529.12 18.1616H1541.37V82H1533.16V44.3228C1533.16 43.019 1533.19 40.8607 1533.25 37.8477C1533.3 34.8346 1533.33 31.6043 1533.33 28.1567L1515.12 82H1506.56L1488.22 28.1567V30.1123C1488.22 31.6768 1488.25 34.0669 1488.31 37.2827C1488.4 40.4696 1488.44 42.8162 1488.44 44.3228V82H1480.18V18.1616Z" fill="white"/>
</svg>
